# xmcd CD database file
#
# Track frame offsets:
#	150
#	17880
#	41286
#	67330
#
# Disc length: 1324 seconds
#
# Revision: 0
# Processed by: cddbd v1.4PL0 Copyright (c) Steve Scherf et al.
# Submitted via: CDex 1.50beta8
#
DISCID=31052a04
DTITLE=dorlis - HitorigotomitainiAisiteta
DYEAR=2002
DGENRE=Jazz
TTITLE0=Hitorigotomitainiaisiteta
TTITLE1=Dabnerief
TTITLE2=You'd be so nice to come home to
TTITLE3=DATA
EXTD=YEAR: 2002
EXTT0=
EXTT1=
EXTT2=
EXTT3=
PLAYORDER=
